# xmcd
#
# Track frame offsets: 
#        150
#        18437
#        37443
#        55958
#        73457
#        93100
#        111553
#        129994
#        149120
#        168500
#        186565
#        204797
#        224377
#        243009
#
# Disc length: 3486 seconds
#
# Revision: 3
# Processed by: cddbd v1.5.2PL0 Copyright (c) Steve Scherf et al.
# Submitted via: ExactAudioCopy v0.99pb5
#
DISCID=de0d9c0e
DTITLE=Jelly Roll Morton - The Complete Library of Congress Recordings
DTITLE=[CD1]
DYEAR=2005
DGENRE=Ragtime, Dixieland and Jazz blues
TTITLE0=The Story of Alabama Bound
TTITLE1=Time in Mobile
TTITLE2=King Porter Stomp
TTITLE3=The Story of King Porter Stomp
TTITLE4=Jell Roll's Background
TTITLE5=Music Lessons
TTITLE6=Miserere
TTITLE7=The Stomping Grounds
TTITLE8=The Style of Sammy Davis
TTITLE9=Tony Jackson Was the Favorite/Dope, Crown, and Opium
TTITLE10=Poor Alfred Wilson
TTITLE11=Honkey Tonk Blues
TTITLE12=New Orleans Was a Free and Easy Place
TTITLE13=The Story of Aaron Harris, Pt. 1
EXTD=YEAR: 2005
EXTT0=
EXTT1=
EXTT2=
EXTT3=
EXTT4=
EXTT5=
EXTT6=
EXTT7=
EXTT8=
EXTT9=
EXTT10=
EXTT11=
EXTT12=
EXTT13=
PLAYORDER=
